<svg xmlns="http://www.w3.org/2000/svg" viewBox="0 0 1024 1024" role="img" aria-label="RedLine">
  <rect width="1024" height="1024" rx="220" fill="#06152d"/>
  <path d="M760 220H326c-139 0-252 113-252 252s113 252 252 252h130c104 0 188-84 188-188" fill="none" stroke="#ff8f2a" stroke-width="86" stroke-linecap="round"/>
  <path d="M684 348H360c-84 0-152 68-152 152s68 152 152 152h88c70 0 126-56 126-126" fill="none" stroke="#ffd46a" stroke-width="72" stroke-linecap="round"/>
  <path d="M574 526c0-36-29-65-65-65s-65 29-65 65" fill="none" stroke="#fff0b3" stroke-width="58" stroke-linecap="round"/>
  <path d="M650 352v316c0 76 62 138 138 138" fill="none" stroke="#ff3d31" stroke-width="72" stroke-linecap="round"/>
  <path d="M705 352h145" fill="none" stroke="#ff3d31" stroke-width="72" stroke-linecap="round"/>
</svg>
